HIERARCHY
ROOT Bip001_Pelvis
{
  OFFSET 34.4345 95.6767 -26.8758
  CHANNELS 6 Xposition Yposition Zposition Zrotation Xrotation Yrotation
  JOINT Bip001_Spine
  {
    OFFSET 1.4188e-005 10.2191 -0.0116013
    CHANNELS 3 Zrotation Xrotation Yrotation
    JOINT Bip001_L_Thigh
    {
      OFFSET 11.0458 -10.2192 0.0116197
      CHANNELS 3 Zrotation Xrotation Yrotation
      JOINT Bip001_L_Calf
      {
        OFFSET -0.707118 -44.0221 0.360014
        CHANNELS 3 Zrotation Xrotation Yrotation
        JOINT Bip001_L_Foot
        {
          OFFSET -0.651902 -40.5938 -3.56146
          CHANNELS 3 Zrotation Xrotation Yrotation
          JOINT Bip001_L_Toe0
          {
            OFFSET 0.0530839 -10.2181 13.1504
            CHANNELS 3 Zrotation Xrotation Yrotation
            End Site
            {
              OFFSET -1.02532e-005 0 7.55606
            }
          }
        }
      }
    }
    JOINT Bip001_R_Thigh
    {
      OFFSET -11.0458 -10.2191 0.0115893
      CHANNELS 3 Zrotation Xrotation Yrotation
      JOINT Bip001_R_Calf
      {
        OFFSET 0.706994 -44.0221 0.35984
        CHANNELS 3 Zrotation Xrotation Yrotation
        JOINT Bip001_R_Foot
        {
          OFFSET 0.651786 -40.5938 -3.5613
          CHANNELS 3 Zrotation Xrotation Yrotation
          JOINT Bip001_R_Toe0
          {
            OFFSET -0.0531479 -10.2181 13.1504
            CHANNELS 3 Zrotation Xrotation Yrotation
            End Site
            {
              OFFSET -1.02894e-005 0 7.55606
            }
          }
        }
      }
    }
    JOINT Bip001_Spine1
    {
      OFFSET 1.87041e-005 14.5736 1.08638
      CHANNELS 3 Zrotation Xrotation Yrotation
      JOINT Bip001_Spine2
      {
        OFFSET 2.24614e-005 14.5058 -1.69078
        CHANNELS 3 Zrotation Xrotation Yrotation
        JOINT Bip001_Neck
        {
          OFFSET 2.20278e-005 15.3945 -0.489414
          CHANNELS 3 Zrotation Xrotation Yrotation
          JOINT Bip001_L_Clavicle
          {
            OFFSET 6.06036 -0.000579998 0.00836775
            CHANNELS 3 Zrotation Xrotation Yrotation
            JOINT Bip001_L_UpperArm
            {
              OFFSET 11.5509 -0.0600302 0.00193952
              CHANNELS 3 Zrotation Xrotation Yrotation
              JOINT Bip001_L_Forearm
              {
                OFFSET 25.9523 0.0806089 -2.15551
                CHANNELS 3 Zrotation Xrotation Yrotation
                JOINT Bip001_L_Hand
                {
                  OFFSET 32.2475 0.153767 1.63968
                  CHANNELS 3 Zrotation Xrotation Yrotation
                  JOINT Bip001_L_Finger0
                  {
                    OFFSET 6.04639 -2.20976 5.90322
                    CHANNELS 3 Zrotation Xrotation Yrotation
                    End Site
                    {
                      OFFSET 4.22375 -1.43895 0.606485
                    }
                  }
                  JOINT Bip001_L_Finger1
                  {
                    OFFSET 11.0826 -0.704819 -0.198153
                    CHANNELS 3 Zrotation Xrotation Yrotation
                    End Site
                    {
                      OFFSET 6.20027 -0.397518 -0.0787166
                    }
                  }
                }
              }
            }
          }
          JOINT Bip001_R_Clavicle
          {
            OFFSET -6.06037 -0.000563197 0.00835105
            CHANNELS 3 Zrotation Xrotation Yrotation
            JOINT Bip001_R_UpperArm
            {
              OFFSET -11.5509 -0.0599978 0.00190698
              CHANNELS 3 Zrotation Xrotation Yrotation
              JOINT Bip001_R_Forearm
              {
                OFFSET -25.9523 0.0806822 -2.15589
                CHANNELS 3 Zrotation Xrotation Yrotation
                JOINT Bip001_R_Hand
                {
                  OFFSET -32.2475 0.153859 1.63989
                  CHANNELS 3 Zrotation Xrotation Yrotation
                  JOINT Bip001_R_Finger0
                  {
                    OFFSET -6.04641 -2.20976 5.90317
                    CHANNELS 3 Zrotation Xrotation Yrotation
                    End Site
                    {
                      OFFSET -4.22376 -1.43895 0.60647
                    }
                  }
                  JOINT Bip001_R_Finger1
                  {
                    OFFSET -11.0826 -0.704794 -0.198182
                    CHANNELS 3 Zrotation Xrotation Yrotation
                    End Site
                    {
                      OFFSET -6.20028 -0.397504 -0.0787333
                    }
                  }
                }
              }
            }
          }
          JOINT Bip001_Head
          {
            OFFSET 1.09673e-005 11.2744 2.05948
            CHANNELS 3 Zrotation Xrotation Yrotation
            End Site
            {
              OFFSET 2.89576e-005 20.8808 -2.77728e-005
            }
          }
        }
      }
    }
  }
}
MOTION
Frames:	16
Frame Time:	0.04
33.2136 95.9114 -29.5829 -0.408057 -1.30982 2.86005 -0.213064 2.26762 -0.586363 6.48918 -1.62739 9.54378 0.101394 7.7066 -2.24963 0.052224 -4.84039 0.0457383 1.52242 -3.77388 -1.30521 -2.86538 -0.612858 -3.22897 0.154673 7.86015 -0.541564 -6.33907 -7.30197 -1.79258 2.54273 -8.49362 2.59559 -0.386052 4.51837 -1.17929 -0.386051 4.5184 -1.17929 6.3401 -4.2505 -0.403927 -30.0417 5.29944 -0.115865 -59.6654 46.1774 11.0389 16.2961 -12.9085 -29.1382 6.62319 1.21815 1.21321 -1.59028e-015 0 -0 -1.59028e-015 -3.18056e-015 1.59028e-015 18.5891 9.98495 14.1484 64.9709 17.7563 -10.533 -27.2587 9.18557 18.5895 1.51463 -5.9445 8.21464 4.77083e-015 -3.18055e-015 -1.59028e-015 1.59028e-015 3.18056e-015 1.59028e-015 -5.61349 -8.62237 2.12024 
33.2062 95.91 -29.6267 -0.359596 -1.35159 2.84159 -0.213153 2.26762 -0.584112 6.48041 -1.65857 9.5807 0.0994809 7.81446 -2.24183 -0.263239 -5.03125 0.0457515 1.37366 -3.52165 -1.19584 -2.91777 -0.698068 -2.88997 0.228104 8.03973 -0.665196 -6.39663 -7.31193 -1.98342 2.54528 -8.48968 2.61399 -0.396205 4.5342 -1.15952 -0.395547 4.53418 -1.1594 6.47022 -4.02099 -0.424513 -30.1182 5.07114 -0.166908 -59.5422 46.0024 11.0035 16.3218 -12.8771 -29.4037 6.58567 1.30503 1.1479 -3.18055e-015 9.54166e-015 -0 1.59028e-015 9.54167e-015 -0 18.4836 9.7821 14.2528 64.8875 17.934 -10.5807 -27.2621 9.03954 18.6701 1.4328 -5.96139 8.11223 1.59028e-015 3.18055e-015 -0 3.18055e-015 0 -0 -5.83341 -8.93646 2.16313 
33.1386 95.9029 -29.6265 -0.314545 -1.40948 2.55186 -0.224606 2.28649 -0.518916 6.5677 -1.52365 10.0988 -0.00275357 7.79167 -2.53146 -0.437946 -5.18634 0.0457625 1.23381 -3.35911 -1.07622 -2.87242 -0.837725 -2.12036 0.243576 8.28603 -0.817177 -6.49183 -7.33297 -2.3687 2.54561 -8.49153 2.61565 -0.427939 4.57493 -1.03003 -0.427445 4.57493 -1.03003 6.57674 -3.96816 -0.412309 -30.174 5.03762 -0.234697 -59.3754 45.9017 10.9112 16.283 -12.9155 -29.6077 6.56233 1.28201 1.13702 1.59028e-015 -3.18055e-015 -6.36111e-015 -3.18055e-015 3.18056e-015 -3.18055e-015 18.4481 9.74997 14.2877 64.8234 18.3815 -10.8953 -27.2846 8.45073 19.096 1.44076 -6.0449 7.88701 -3.18055e-015 0 -1.59028e-015 -1.59028e-015 -3.18056e-015 -1.59028e-015 -5.98333 -9.0682 2.22445 
33.0985 95.8947 -29.6234 -0.277283 -1.46796 2.40765 -0.228954 2.31191 -0.485951 6.5965 -1.447 10.3924 -0.0530457 7.78029 -2.75666 -0.349321 -5.14927 0.0457599 1.25749 -3.43336 -1.08852 -2.86917 -0.913301 -1.9108 0.250516 8.46326 -0.784431 -6.55976 -7.38702 -2.49926 2.5474 -8.5058 2.6234 -0.449851 4.62567 -0.963567 -0.450244 4.62569 -0.963598 6.61904 -3.95601 -0.380645 -30.1625 5.06824 -0.363511 -59.1781 45.8386 10.7278 16.2497 -12.9154 -29.698 6.56659 1.26227 1.06768 -3.18055e-015 -3.18055e-015 3.18055e-015 -4.77083e-015 -3.18056e-015 3.18055e-015 18.4488 9.74426 14.3041 64.8222 18.5899 -11.0465 -27.5277 8.21311 19.2854 1.34679 -6.14189 7.78074 7.95139e-015 -3.18055e-015 -1.59028e-015 7.95139e-015 0 -1.59028e-015 -6.08326 -9.03724 2.28404 
33.1404 95.8934 -29.6573 -0.28785 -1.47189 2.7617 -0.223009 2.32441 -0.536378 6.57846 -1.66204 9.85353 -0.0201799 8.00929 -2.30265 -0.603182 -5.38276 0.045777 1.31985 -3.27984 -1.19666 -2.92382 -0.848035 -2.42903 0.280732 8.40385 -0.774142 -6.54871 -7.41468 -2.30303 2.54964 -8.53579 2.62936 -0.424734 4.65078 -1.065 -0.424734 4.65078 -1.06501 6.64834 -3.87504 -0.382969 -30.199 5.01255 -0.454771 -58.9901 45.8053 10.5578 16.2675 -12.8572 -29.7494 6.61274 1.22605 1.04654 -1.59028e-015 0 -3.18055e-015 -3.18055e-015 3.18056e-015 -3.18055e-015 18.438 9.7045 14.4177 64.7023 18.6182 -11.206 -27.7229 8.08233 19.4818 1.2136 -6.12375 7.71537 -5.29669e-031 9.54166e-015 3.18055e-015 1.59028e-015 1.27222e-014 1.59028e-015 -6.16509 -9.03721 2.30471 
33.1403 95.8857 -29.6475 -0.310187 -1.49025 2.92529 -0.211557 2.32633 -0.542289 6.57346 -1.71878 9.74038 -0.00425115 8.05216 -2.55296 -0.290732 -5.21855 0.0457649 1.28798 -3.47741 -1.09174 -2.90942 -0.802326 -2.68601 0.271339 8.4061 -0.754707 -6.56237 -7.4546 -2.23674 2.54405 -8.51008 2.6287 -0.401934 4.67265 -1.0778 -0.401638 4.67266 -1.07752 6.73805 -3.63321 -0.442564 -30.3016 4.77852 -0.5473 -58.8997 45.8097 10.4417 16.2796 -12.9022 -29.7928 6.62047 1.29648 1.1123 -0 -3.18055e-015 -0 -1.59028e-015 -6.36111e-015 -0 18.3162 9.4882 14.5425 64.6198 18.6113 -11.3271 -27.9692 8.11103 19.6724 1.16783 -6.1829 7.7138 1.59028e-015 -6.36111e-015 -0 -3.18055e-015 -3.18056e-015 -0 -6.29671 -9.35271 2.28856 
33.1297 95.8827 -29.6975 -0.382293 -1.40279 3.1846 -0.194528 2.3264 -0.573181 6.64336 -1.99353 9.22692 -0.0509813 8.25177 -2.32119 -0.0719952 -5.12796 0.0457583 1.33882 -3.60502 -1.13295 -2.84061 -0.832482 -2.75156 0.297314 8.32078 -0.790601 -6.60135 -7.39014 -2.34695 2.54475 -8.51584 2.61607 -0.364792 4.65219 -1.13981 -0.364974 4.65218 -1.13988 6.82451 -3.51384 -0.490466 -30.4117 4.63897 -0.528348 -58.8673 45.8805 10.3566 16.311 -12.8982 -29.7994 6.7989 1.33653 1.13337 3.18055e-015 3.18055e-015 -0 1.59028e-015 0 -0 18.1976 9.39284 14.6492 64.549 18.5967 -11.4917 -28.2159 7.97032 19.8831 1.28998 -6.24763 7.80066 1.59028e-015 -6.36111e-015 -0 -2.64834e-031 -9.54167e-015 -1.59028e-015 -6.40087 -9.50973 2.28053 
33.1241 95.8818 -29.7022 -0.405412 -1.3634 3.2745 -0.192636 2.32377 -0.573001 6.72927 -2.13248 9.1247 -0.0538816 8.48422 -2.25486 -0.895222 -5.73539 0.0458045 0.887581 -3.03605 -0.742449 -2.81262 -0.835064 -2.70723 0.320003 8.26556 -0.764039 -6.64325 -7.33824 -2.49306 2.55843 -8.55031 2.62562 -0.362133 4.64769 -1.14014 -0.362215 4.6477 -1.14015 6.93838 -3.50111 -0.511312 -30.5394 4.59797 -0.464846 -58.8921 45.9559 10.3433 16.2955 -13.0694 -29.8478 6.7644 1.32645 1.1189 3.18055e-015 6.36111e-015 -6.36111e-015 -1.59028e-015 6.36111e-015 -3.18055e-015 18.0558 9.38292 14.6755 64.5121 18.5779 -11.6493 -28.4603 7.68892 20.0561 1.50009 -6.24362 7.96153 -0 0 1.59028e-015 1.59028e-015 -3.18056e-015 -0 -6.54951 -9.51915 2.30544 
33.1297 95.8811 -29.6967 -0.440757 -1.33255 3.39465 -0.191937 2.32178 -0.572125 6.73923 -2.17156 8.08134 -0.165991 8.4183 -1.32579 -0.725892 -5.60065 0.0457938 1.00304 -3.19897 -0.839297 -2.77607 -0.799307 -2.83759 0.321962 8.1866 -0.711359 -6.66364 -7.31727 -2.52764 2.55804 -8.52915 2.62415 -0.361075 4.64534 -1.13786 -0.361075 4.64536 -1.13786 7.03466 -3.4588 -0.509707 -30.6355 4.55396 -0.463684 -58.9947 46.0082 10.4582 16.2828 -13.1494 -29.9897 6.70356 1.36442 1.13573 3.18055e-015 3.18055e-015 6.36111e-015 -1.59028e-015 6.36111e-015 6.36111e-015 18.062 9.36156 14.692 64.3208 18.6098 -11.8619 -28.6884 7.62666 20.2134 1.41321 -6.27343 7.96822 -3.18055e-015 0 1.59028e-015 -1.59028e-015 -3.18056e-015 1.59028e-015 -6.65234 -9.55121 2.35112 
33.1305 95.8792 -29.61 -0.302549 -1.44148 3.00313 -0.23273 2.3541 -0.484855 6.6079 -1.69322 8.46248 -0.254171 7.84416 -1.49672 0.0421285 -5.00073 0.042115 1.37639 -3.76533 -1.12144 -2.87447 -0.833122 -2.46252 0.323249 8.40983 -0.611272 -6.69409 -7.39653 -2.69187 2.56061 -8.55494 2.62781 -0.446061 4.71007 -0.961344 -0.446062 4.71007 -0.961345 7.0982 -3.43584 -0.492359 -30.6655 4.51977 -0.418782 -59.122 46.1009 10.5347 16.3154 -13.1321 -30.1104 6.65241 1.30727 1.12888 -4.77083e-015 -1.27222e-014 3.18055e-015 -4.77083e-015 -9.54167e-015 -0 18.0202 9.34082 14.6912 64.2459 18.593 -12.0453 -29.0158 7.68489 20.4343 1.32429 -6.3595 7.99608 -1.59028e-015 -6.36111e-015 -0 0 0 -0 -6.73862 -9.72524 2.39206 
33.1384 95.858 -29.6592 -0.475854 -1.29894 3.4198 -0.186543 2.34241 -0.56031 6.77902 -2.26958 8.90782 -0.144686 8.53719 -2.34977 0.0413071 -5.33282 0.0387585 1.25146 -3.74614 -0.989036 -2.75417 -0.887467 -2.77912 0.353884 8.30925 -0.490425 -6.74628 -7.32228 -2.81967 2.56457 -8.57772 2.62638 -0.352205 4.6885 -1.11431 -0.35138 4.6885 -1.11427 7.15001 -3.53624 -0.464741 -30.7691 4.60559 -0.340735 -59.1429 46.1233 10.6079 16.2868 -13.042 -30.2716 6.71492 1.35583 1.1006 1.59028e-015 0 -6.36111e-015 -3.53113e-031 -6.36111e-015 -3.18055e-015 18.0178 9.44778 14.6683 63.9951 18.4985 -12.3129 -29.3021 7.48123 20.7568 1.38377 -6.33633 7.97526 0 0 -1.59028e-015 -1.59028e-015 3.18056e-015 1.59028e-015 -6.87005 -9.67614 2.44909 
33.1912 95.8465 -29.6629 -0.487835 -1.23268 3.52369 -0.178458 2.3394 -0.582535 6.7259 -2.38874 9.3254 -0.108535 8.56325 -2.7971 0.74313 -4.97232 0.0351104 1.68879 -4.39746 -1.34971 -2.81441 -0.965186 -2.68248 0.455453 8.36607 -0.385083 -6.85782 -7.31991 -3.07084 2.56865 -8.57782 2.61925 -0.336149 4.68815 -1.16161 -0.33566 4.68817 -1.16103 7.2521 -3.49836 -0.440289 -30.9036 4.58285 -0.371485 -59.1113 46.1027 10.6434 16.4014 -12.6078 -30.287 6.58032 1.33583 1.02808 -1.59028e-015 -1.90833e-014 -0 -0 -1.27222e-014 -0 17.8049 9.33616 14.5379 63.9885 18.6777 -12.4041 -29.6506 7.49044 20.86 1.14086 -6.42326 8.13446 -3.18055e-015 0 -1.59028e-015 -4.77083e-015 3.18056e-015 -1.59028e-015 -7.02541 -9.69868 2.52136 
33.2724 95.8514 -29.6489 -0.360593 -1.17451 3.31174 -0.19871 2.32576 -0.584624 6.56416 -2.18499 10.4536 -0.0871952 8.21609 -3.66256 1.12059 -4.6799 0.0209683 1.87267 -4.74892 -1.46801 -3.06091 -1.08829 -2.25952 0.654149 8.5043 -0.264523 -7.0101 -7.33704 -3.34739 2.56937 -8.57799 2.60993 -0.372197 4.65339 -1.16662 -0.373297 4.65341 -1.1647 7.45794 -3.42644 -0.376828 -30.9627 4.55662 -0.516025 -59.3635 46.0474 10.812 16.4327 -12.1679 -30.0708 6.73081 1.2669 0.933784 3.18055e-015 0 6.36111e-015 4.77083e-015 -3.18056e-015 6.36111e-015 17.4526 9.01459 13.822 64.1369 19.2768 -12.4281 -30.2439 7.292 20.7927 -0.829957 -6.60543 8.21575 1.59028e-015 -9.54166e-015 -0 1.76556e-031 -6.36111e-015 1.59028e-015 -7.28371 -9.50073 2.69676 
33.3825 95.8538 -29.5659 -0.111195 -1.24502 2.91122 -0.232557 2.31443 -0.65241 6.38192 -1.63975 11.8177 -0.290317 7.69755 -4.34269 1.19517 -4.63973 0.0200891 2.01386 -4.89088 -1.64883 -3.41573 -1.15494 -2.93559 0.528986 8.84907 -0.14018 -6.78028 -7.69623 -2.38489 2.57107 -8.58984 2.60438 -0.439906 4.63113 -1.29594 -0.44143 4.63117 -1.29634 7.53802 -3.16036 -0.0787949 -30.7229 4.45957 -0.872742 -60.0774 45.6191 11.2838 16.3085 -11.7841 -29.9406 6.70171 1.31471 0.933236 1.59028e-015 -6.36111e-015 3.18055e-015 6.36111e-015 -3.18056e-015 -0 17.4833 8.40149 12.7392 63.9936 17.0341 -12.1311 -31.9387 8.32564 21.3353 -4.21811 -6.85023 8.60515 1.59028e-015 0 6.36111e-015 1.59028e-015 3.18056e-015 3.18055e-015 -7.48884 -9.43012 3.06189 
33.4676 95.8489 -29.5611 0.0283244 -1.14868 2.43146 -0.234706 2.27184 -0.843702 6.1896 -1.4701 12.4977 -0.379321 7.53376 -4.4552 1.46065 -4.49485 0.0193969 2.00605 -5.10476 -1.60166 -3.68371 -1.34355 -2.34859 0.634033 8.96363 -0.194577 -6.73679 -7.80026 -2.29364 2.57644 -8.59541 2.62343 -0.434231 4.54688 -1.68011 -0.434231 4.54688 -1.68011 7.59293 -2.57428 0.278781 -30.0626 3.99795 -1.11413 -61.1832 45.1974 11.6715 16.4605 -10.6869 -29.4801 6.47469 1.25964 0.536015 -4.77083e-015 3.18055e-015 1.59028e-015 -7.95139e-015 0 3.18055e-015 17.7987 7.53 11.7534 62.8145 11.0606 -12.9342 -34.0494 7.79168 25.1441 -9.18227 -7.48843 7.15881 -4.77083e-015 9.54166e-015 -0 -4.77083e-015 3.18056e-015 -0 -7.67189 -9.69421 3.48086 
33.5542 95.826 -29.564 0.0906568 -0.987792 1.85767 -0.227957 2.18341 -1.09227 6.06657 -1.46498 13.013 -0.373312 7.69912 -4.03948 1.39354 -4.70851 0.0189072 2.07644 -5.00876 -1.67345 -3.84496 -1.68825 -1.26687 0.722637 9.26437 -0.359175 -6.75687 -7.8845 -2.38295 2.59189 -8.64378 2.64084 -0.413219 4.37074 -2.17816 -0.417639 4.37074 -2.17809 8.35659 -1.46744 0.551877 -29.9781 3.08941 -1.75561 -62.5632 44.481 12.3773 16.5196 -9.19856 -28.9553 6.80066 1.31767 0.000730759 -4.77083e-015 0 -1.59028e-015 -1.59028e-015 3.18056e-015 -0 17.3282 5.93771 10.2563 61.8035 4.22557 -14.0572 -35.3287 3.32133 30.0622 -15.7635 -8.59873 5.14525 -2.38542e-015 0 -0 2.38542e-015 1.59028e-015 3.18055e-015 -8.55957 -10.2594 4.13423 
